<mxfile host="app.diagrams.net" modified="2024-09-24T14:36:25.240Z" agent="Mozilla/5.0 (Windows NT 10.0; Win64; x64) AppleWebKit/537.36 (KHTML, like Gecko) Chrome/128.0.0.0 Safari/537.36" version="24.7.2" etag="c2WgR8PCzt-kVGRwhP1f" type="github">
  <diagram name="第 1 页" id="RowtB_Lr62EkGsmcYgT8">
    <mxGraphModel>
      <root>
        <mxCell id="0" />
        <mxCell id="1" parent="0" />
      </root>
    </mxGraphModel>
  </diagram>
</mxfile>
